<?xml version="1.0" encoding="UTF-8" standalone="no"?>
<!-- Created with Inkscape (http://www.inkscape.org/) -->

<svg
   xmlns:dc="http://purl.org/dc/elements/1.1/"
   xmlns:cc="http://creativecommons.org/ns#"
   xmlns:rdf="http://www.w3.org/1999/02/22-rdf-syntax-ns#"
   xmlns:svg="http://www.w3.org/2000/svg"
   xmlns="http://www.w3.org/2000/svg"
   xmlns:sodipodi="http://sodipodi.sourceforge.net/DTD/sodipodi-0.dtd"
   xmlns:inkscape="http://www.inkscape.org/namespaces/inkscape"
   width="32.808334mm"
   height="11.641666mm"
   viewBox="0 0 32.808334 11.641666"
   version="1.1"
   id="svg8"
   inkscape:version="0.92.5 (2060ec1f9f, 2020-04-08)"
   sodipodi:docname="logo.svg">
  <defs
     id="defs2" />
  <sodipodi:namedview
     id="base"
     pagecolor="#ffffff"
     bordercolor="#666666"
     borderopacity="1.0"
     inkscape:pageopacity="0.0"
     inkscape:pageshadow="2"
     inkscape:zoom="0.98994949"
     inkscape:cx="220.95089"
     inkscape:cy="10.166176"
     inkscape:document-units="mm"
     inkscape:current-layer="layer1"
     showgrid="false"
     inkscape:snap-bbox="true"
     inkscape:snap-bbox-midpoints="true"
     inkscape:snap-bbox-edge-midpoints="true"
     inkscape:bbox-nodes="true"
     inkscape:bbox-paths="true"
     inkscape:snap-global="true"
     fit-margin-top="0"
     fit-margin-left="0"
     fit-margin-right="0"
     fit-margin-bottom="0"
     inkscape:window-width="2560"
     inkscape:window-height="1015"
     inkscape:window-x="1366"
     inkscape:window-y="0"
     inkscape:window-maximized="1" />
  <metadata
     id="metadata5">
    <rdf:RDF>
      <cc:Work
         rdf:about="">
        <dc:format>image/svg+xml</dc:format>
        <dc:type
           rdf:resource="http://purl.org/dc/dcmitype/StillImage" />
        <dc:title></dc:title>
      </cc:Work>
    </rdf:RDF>
  </metadata>
  <g
     inkscape:label="Camada 1"
     inkscape:groupmode="layer"
     id="layer1"
     transform="translate(-42.495853,-161.87981)">
    <g
       id="g1049"
       transform="matrix(0.68135233,0,0,0.68135233,0.20665208,70.762445)">
      <g
         transform="matrix(0.22682765,0,0,0.22682765,65.77919,120.37585)"
         id="g1030">
        <path
           style="opacity:1;vector-effect:none;fill:#42d67e;fill-opacity:1;stroke:none;stroke-width:0.5091911;stroke-linecap:butt;stroke-linejoin:miter;stroke-miterlimit:4;stroke-dasharray:none;stroke-dashoffset:0;stroke-opacity:1"
           d="m 11.670271,83.538185 v 10.110367 c 0,2.198827 -1.7701749,3.969002 -3.9690019,3.969002 -2.1988269,0 -3.9690017,-1.770175 -3.9690017,-3.969002 V 83.538185 Z"
           id="rect841"
           inkscape:connector-curvature="0"
           sodipodi:nodetypes="cssscc" />
        <path
           style="opacity:1;vector-effect:none;fill:#73fe71;fill-opacity:1;stroke:none;stroke-width:0.46666667;stroke-linecap:butt;stroke-linejoin:miter;stroke-miterlimit:4;stroke-dasharray:none;stroke-dashoffset:0;stroke-opacity:1"
           d="m 11.670019,83.537941 a 3.96875,3.96875 0 0 1 -3.9687495,3.96875 3.96875,3.96875 0 0 1 -3.96875,-3.96875 3.96875,3.96875 0 0 1 3.96875,-3.96875 3.96875,3.96875 0 0 1 3.9687495,3.96875 z"
           id="circle828"
           inkscape:connector-curvature="0" />
        <path
           style="opacity:1;vector-effect:none;fill:#52e1df;fill-opacity:1;stroke:none;stroke-width:0.46666667;stroke-linecap:butt;stroke-linejoin:miter;stroke-miterlimit:4;stroke-dasharray:none;stroke-dashoffset:0;stroke-opacity:1"
           d="m 1.6064015,93.648804 a 3.96875,3.96875 0 0 1 -3.96875,3.96875 3.96875,3.96875 0 0 1 -3.96875,-3.96875 3.96875,3.96875 0 0 1 3.96875,-3.96875 3.96875,3.96875 0 0 1 3.96875,3.96875 z"
           id="circle830"
           inkscape:connector-curvature="0" />
        <rect
           style="opacity:1;vector-effect:none;fill:#75507b;fill-opacity:1;stroke:none;stroke-width:0.5091911;stroke-linecap:butt;stroke-linejoin:miter;stroke-miterlimit:4;stroke-dasharray:none;stroke-dashoffset:0;stroke-opacity:1"
           id="rect834"
           width="7.9380035"
           height="27.970243"
           x="13.795881"
           y="69.647308"
           rx="3.9690018"
           ry="3.9690018" />
        <path
           style="opacity:1;vector-effect:none;fill:#6cd56c;fill-opacity:1;stroke:none;stroke-width:0.5091911;stroke-linecap:butt;stroke-linejoin:miter;stroke-miterlimit:4;stroke-dasharray:none;stroke-dashoffset:0;stroke-opacity:1"
           d="m 21.733885,73.61631 v 20.03224 c 0,2.198827 -1.770175,3.969002 -3.969002,3.969002 -2.198827,0 -3.969002,-1.770175 -3.969002,-3.969002 V 73.61631 Z"
           id="rect839"
           inkscape:connector-curvature="0"
           sodipodi:nodetypes="cssscc" />
        <path
           style="opacity:1;vector-effect:none;fill:#c7fe49;fill-opacity:1;stroke:none;stroke-width:0.46666667;stroke-linecap:butt;stroke-linejoin:miter;stroke-miterlimit:4;stroke-dasharray:none;stroke-dashoffset:0;stroke-opacity:1"
           d="m 21.733633,73.616058 a 3.96875,3.96875 0 0 1 -3.96875,3.96875 3.96875,3.96875 0 0 1 -3.96875,-3.96875 3.96875,3.96875 0 0 1 3.96875,-3.96875 3.96875,3.96875 0 0 1 3.96875,3.96875 z"
           id="circle832"
           inkscape:connector-curvature="0" />
      </g>
      <g
         id="g1055"
         transform="translate(0,-0.80580822)">
        <text
           xml:space="preserve"
           style="font-style:normal;font-weight:normal;font-size:10.75683022px;line-height:1.25;font-family:sans-serif;letter-spacing:0px;word-spacing:0px;fill:#2f3740;fill-opacity:1;stroke:none;stroke-width:0.26892075"
           x="75.431458"
           y="144.8434"
           id="text847"><tspan
             sodipodi:role="line"
             id="tspan845"
             x="75.431458"
             y="144.8434"
             style="font-style:normal;font-variant:normal;font-weight:bold;font-stretch:normal;font-family:Bryant;-inkscape-font-specification:'Bryant Bold';fill:#2f3740;fill-opacity:1;stroke-width:0.26892075">Growth</tspan></text>
        <text
           id="text851"
           y="149.73985"
           x="93.331459"
           style="font-style:normal;font-weight:normal;font-size:6.03930235px;line-height:1.25;font-family:sans-serif;letter-spacing:0px;word-spacing:0px;fill:#00d077;fill-opacity:1;stroke:none;stroke-width:0.15098256"
           xml:space="preserve"><tspan
             style="font-style:normal;font-variant:normal;font-weight:500;font-stretch:normal;font-family:Bryant;-inkscape-font-specification:'Bryant Medium';fill:#00d077;fill-opacity:1;stroke-width:0.15098256"
             y="149.73985"
             x="93.331459"
             id="tspan849"
             sodipodi:role="line">.Store</tspan></text>
      </g>
      <g
         transform="matrix(-0.68955334,0,0,0.68955334,76.551284,134.10513)"
         id="g949"
         style="fill:#2f3740;fill-opacity:1;fill-rule:evenodd;stroke:none;stroke-width:1">
        <path
           id="path931"
           d="M 19.335656,15.149818 C 19.094334,16.182822 18.068906,17 17.010385,17 H 8.9963896 C 7.9422399,17 6.9161276,16.177626 6.6860134,15.14251 L 4.3391356,4.5856179 C 4.2694498,4.2721524 3.9278911,4 3.6044374,4 H 1 V 3 H 3.6044374 C 4.3952185,3 5.1436201,3.596323 5.315305,4.3686079 L 7.6621828,14.9255 C 7.7905552,15.502954 8.4107416,16 8.9963896,16 h 8.0139954 c 0.592957,0 1.215662,-0.496242 1.35149,-1.077669 L 19.979014,8 h 1.026925 z"
           inkscape:connector-curvature="0"
           style="fill:#2f3740;fill-opacity:1" />
        <path
           id="path933"
           d="m 9.6814839,21.618955 c 1.0182031,0 1.8436201,-0.825417 1.8436201,-1.84362 0,-1.018203 -0.825417,-1.84362 -1.8436201,-1.84362 -1.0182032,0 -1.84362,0.825417 -1.84362,1.84362 0,1.018203 0.8254168,1.84362 1.84362,1.84362 z m 0,-0.737448 c 0.6109221,0 1.1061721,-0.49525 1.1061721,-1.106172 0,-0.610922 -0.49525,-1.106172 -1.1061721,-1.106172 -0.6109219,0 -1.106172,0.49525 -1.106172,1.106172 0,0.610922 0.4952501,1.106172 1.106172,1.106172 z"
           inkscape:connector-curvature="0"
           style="fill:#2f3740;fill-opacity:1;stroke-width:0.73744798" />
        <path
           id="path935"
           d="m 16.318516,21.618955 c 1.018203,0 1.84362,-0.825417 1.84362,-1.84362 0,-1.018203 -0.825417,-1.84362 -1.84362,-1.84362 -1.018203,0 -1.84362,0.825417 -1.84362,1.84362 0,1.018203 0.825417,1.84362 1.84362,1.84362 z m 0,-0.737448 c 0.610922,0 1.106172,-0.49525 1.106172,-1.106172 0,-0.610922 -0.49525,-1.106172 -1.106172,-1.106172 -0.610922,0 -1.106172,0.49525 -1.106172,1.106172 0,0.610922 0.49525,1.106172 1.106172,1.106172 z"
           inkscape:connector-curvature="0"
           style="fill:#2f3740;fill-opacity:1;stroke-width:0.73744798" />
      </g>
    </g>
  </g>
</svg>
