<?xml version="1.0" standalone="no"?>
<!DOCTYPE svg PUBLIC "-//W3C//DTD SVG 20010904//EN"
 "http://www.w3.org/TR/2001/REC-SVG-20010904/DTD/svg10.dtd">
<svg version="1.0" xmlns="http://www.w3.org/2000/svg"
 width="512.000000pt" height="512.000000pt" viewBox="0 0 512.000000 512.000000"
 preserveAspectRatio="xMidYMid meet">
<metadata>
Created by potrace 1.14, written by Peter Selinger 2001-2017
</metadata>
<g transform="translate(0.000000,512.000000) scale(0.100000,-0.100000)"
fill="#000000" stroke="none">
<path d="M2819 4939 c-89 -14 -197 -88 -236 -163 -45 -86 -44 -61 -43 -1011 0
-495 4 -914 9 -930 33 -117 137 -215 250 -240 134 -29 285 33 356 145 57 90
56 67 53 1051 l-3 904 -29 57 c-45 90 -141 168 -226 182 -69 12 -86 12 -131 5z"/>
<path d="M4396 4938 c-83 -11 -190 -65 -257 -132 -92 -91 -106 -132 -203 -571
-48 -214 -88 -399 -90 -410 -3 -11 -43 -192 -90 -403 -47 -211 -88 -393 -90
-405 -2 -12 -11 -51 -20 -87 -8 -36 -17 -76 -20 -90 -2 -14 -11 -55 -20 -91
-8 -37 -17 -78 -20 -90 -2 -13 -12 -55 -21 -94 -10 -38 -19 -79 -20 -90 -2
-11 -8 -38 -13 -60 -6 -22 -13 -51 -16 -65 -25 -137 -111 -495 -128 -529 -45
-92 -147 -172 -253 -196 -36 -8 -352 -11 -1105 -10 -977 1 -1059 2 -1107 19
-77 26 -139 73 -198 151 -21 27 -58 131 -69 190 -2 12 -30 132 -61 266 -31
134 -58 251 -60 259 -2 8 -15 65 -30 125 -15 61 -28 120 -31 132 -5 26 -45
197 -75 323 -12 47 -23 94 -25 105 -4 23 -3 17 -44 190 -17 72 -32 141 -35
155 -2 14 -11 46 -19 72 -7 26 -11 49 -8 52 3 4 -10 6 -29 7 -75 2 -231 0
-234 -3 -2 -2 1 -21 6 -43 5 -22 12 -51 15 -65 3 -14 11 -50 19 -80 8 -30 16
-66 19 -80 2 -14 32 -142 66 -285 34 -143 64 -270 66 -283 3 -12 23 -98 45
-190 22 -92 49 -207 60 -257 11 -49 22 -97 24 -105 2 -8 15 -67 30 -130 76
-333 98 -405 154 -489 91 -140 239 -244 396 -277 60 -13 228 -15 1140 -14 589
0 1086 3 1105 6 190 29 365 154 460 327 38 69 60 143 96 327 3 14 14 66 26
115 11 50 24 108 29 130 9 44 9 41 39 175 12 52 23 106 26 120 3 14 12 54 20
90 9 36 18 76 20 90 3 14 12 54 20 90 9 36 18 76 20 90 3 14 12 54 20 90 9 36
18 76 20 90 3 14 12 54 20 90 9 36 18 76 20 90 3 14 12 54 20 90 9 36 17 74
20 85 2 11 42 193 89 405 48 212 89 396 91 410 3 14 12 54 20 90 9 36 17 74
20 85 2 11 8 43 14 71 7 34 23 65 46 93 67 77 55 75 454 77 l355 1 3 126 c2
116 1 127 -15 128 -110 5 -663 2 -707 -3z"/>
<path d="M1960 4100 c-83 -16 -166 -74 -216 -150 -52 -80 -54 -104 -51 -624
l2 -481 33 -67 c36 -73 89 -126 162 -161 36 -17 64 -22 135 -22 80 0 96 3 148
29 68 35 129 97 160 164 22 47 22 52 22 557 l0 510 -27 57 c-65 140 -217 217
-368 188z"/>
<path d="M1090 3243 c-30 -8 -62 -21 -71 -29 -8 -8 -19 -14 -23 -14 -16 0 -85
-74 -109 -118 -37 -68 -51 -156 -35 -226 44 -198 233 -308 429 -250 160 47
257 214 223 383 -39 189 -225 303 -414 254z"/>
<path d="M1080 1105 c-157 -42 -286 -170 -334 -329 -17 -55 -20 -170 -6 -230
38 -172 194 -325 370 -362 43 -9 159 -5 203 7 162 42 301 179 342 338 64 249
-80 500 -331 574 -60 18 -182 19 -244 2z m247 -206 c93 -49 142 -124 151 -227
13 -168 -109 -302 -278 -302 -114 0 -208 60 -256 164 -65 143 1 313 145 373
79 33 166 30 238 -8z"/>
<path d="M2760 1099 c-161 -52 -294 -197 -325 -356 -11 -57 -6 -165 10 -221
101 -349 530 -459 787 -201 216 216 168 579 -97 735 -109 64 -256 80 -375 43z
m244 -190 c67 -25 137 -97 160 -166 88 -259 -202 -478 -430 -322 -107 73 -148
227 -92 345 63 136 219 197 362 143z"/>
</g>
</svg>
